<svg width="166" height="20" viewBox="0 0 166 20" fill="none" xmlns="http://www.w3.org/2000/svg">
<path fill-rule="evenodd" clip-rule="evenodd" d="M5.82901 11.6595C4.20299 11.6595 2.82678 11.0859 1.70107 9.96349C0.575365 8.81583 0 7.44405 0 5.8225C0 4.22624 0.575365 2.8794 1.70107 1.73174C2.82678 0.584428 4.20299 0.0107727 5.82901 0.0107727V3.35329C5.47879 3.35329 5.15359 3.40317 4.8534 3.52788C4.5282 3.65259 4.27804 3.82718 4.02753 4.07659C3.80239 4.30107 3.62763 4.57542 3.50255 4.87472C3.37712 5.17402 3.32709 5.49826 3.32709 5.8225C3.32709 6.52121 3.55258 7.09487 4.02753 7.5937C4.5282 8.09253 5.10355 8.34194 5.82901 8.34194H10.8075C12.4339 8.34194 13.8097 8.9156 14.9354 10.038C16.0862 11.1856 16.6619 12.5574 16.6619 14.154C16.6619 15.7503 16.0862 17.1224 14.9354 18.2697C13.8097 19.3921 12.4339 19.9657 10.8075 19.9657V16.6232C11.1577 16.6232 11.4829 16.5733 11.7834 16.4486C12.1087 16.3239 12.3838 16.1493 12.609 15.9249C12.8341 15.7004 13.0092 15.451 13.1343 15.1267C13.2594 14.8274 13.3344 14.5028 13.3344 14.154C13.3344 13.4802 13.0593 12.9066 12.584 12.4078C12.0833 11.9089 11.5083 11.6595 10.8075 11.6595H5.82901ZM40.7982 11.6595C40.7982 13.9545 39.9974 15.9249 38.3463 17.5464C36.7203 19.1676 34.7187 19.9657 32.4419 19.9657C30.1655 19.9657 28.1889 19.1676 26.5629 17.5464C24.9369 15.9249 24.136 13.9295 24.136 11.6595V0.0107727H27.4635V11.6595C27.4635 13.0313 27.9388 14.2039 28.8897 15.1517C29.8653 16.1493 31.0661 16.6232 32.4419 16.6232C33.8182 16.6232 34.9939 16.1244 35.9698 15.1517C36.9455 14.1786 37.4708 13.0064 37.4708 11.6595H40.7982ZM87.4726 11.6595C87.4726 13.9545 86.6721 15.9249 85.0208 17.5464C83.3947 19.1676 81.3935 19.9657 79.1167 19.9657C76.8399 19.9657 74.8637 19.1676 73.2373 17.5464C71.6116 15.9249 70.8108 13.9295 70.8108 11.6595V0.0107727H74.1382V11.6595C74.1382 13.0313 74.6135 14.2039 75.5645 15.1517C76.5397 16.1493 77.7405 16.6232 79.1167 16.6232C80.4926 16.6232 81.6686 16.1244 82.6443 15.1517C83.6199 14.1786 84.1452 13.0064 84.1452 11.6595H87.4726ZM136.921 8.34215V0.0109825H140.249V8.34215H136.921ZM125.962 9.98815C127.138 11.1109 127.714 12.5076 127.714 14.1537C127.714 14.9522 127.563 15.7005 127.263 16.3988C126.963 17.1221 126.538 17.7207 126.012 18.2445C125.487 18.7932 124.861 19.1923 124.136 19.5169C123.436 19.8162 122.685 19.9658 121.884 19.9658H114.379V16.6233H121.884C122.21 16.6233 122.535 16.5734 122.835 16.4487C123.16 16.324 123.436 16.1494 123.661 15.9C123.886 15.6752 124.061 15.4008 124.186 15.1019C124.311 14.8022 124.386 14.478 124.386 14.1537C124.386 13.8295 124.311 13.5053 124.186 13.206C124.061 12.9067 123.886 12.6323 123.661 12.4078C123.436 12.1834 123.185 11.9838 122.885 11.8591C122.56 11.7344 122.235 11.6596 121.884 11.6596H114.379V8.34201H121.884C122.21 8.34201 122.535 8.29213 122.835 8.14248C123.16 8.01777 123.436 7.84318 123.661 7.59377C123.886 7.36894 124.061 7.09459 124.186 6.79529C124.311 6.49599 124.386 6.17175 124.386 5.82257C124.386 5.49833 124.311 5.17409 124.186 4.87479C124.061 4.57549 123.886 4.30113 123.661 4.07666C123.436 3.82724 123.16 3.65231 122.835 3.52795C122.535 3.40324 122.21 3.35336 121.884 3.35336H114.383L114.391 0.0108414H121.884C122.66 0.0108414 123.41 0.160491 124.136 0.459789C124.861 0.784029 125.487 1.18309 126.012 1.73181C126.538 2.25558 126.963 2.85418 127.263 3.57783C127.563 4.27619 127.714 5.02444 127.714 5.82257C127.714 7.44411 127.138 8.84084 125.962 9.98815ZM153.041 13.3306H149.313L155.993 0.010807L162.673 13.3306H158.92L155.993 7.46902L153.041 13.3306ZM151.377 16.6482L149.688 19.9658H145.986L147.649 16.6482H151.377ZM160.609 16.6482H164.336L166 19.9658H162.298L160.609 16.6482ZM4.06564 19.966V16.6484H7.39308V19.966H4.06564ZM59.848 9.98815C61.0238 11.1109 61.5991 12.5076 61.5991 14.1537C61.5991 14.9522 61.449 15.7005 61.1488 16.3988C60.8487 17.1221 60.4234 17.7207 59.8981 18.2445C59.3727 18.7932 58.747 19.1923 58.0215 19.5169C57.3215 19.8162 56.5703 19.9658 55.7701 19.9658H48.2647V16.6233H55.7701C56.0953 16.6233 56.4205 16.5734 56.7207 16.4487C57.0459 16.324 57.3215 16.1494 57.5462 15.9C57.7714 15.6752 57.9465 15.4008 58.0719 15.1019C58.1967 14.8022 58.2717 14.478 58.2717 14.1537C58.2717 13.8295 58.1967 13.5053 58.0719 13.206C57.9465 12.9067 57.7714 12.6323 57.5462 12.4078C57.3215 12.1834 57.0709 11.9838 56.7708 11.8591C56.4455 11.7344 56.1203 11.6596 55.7701 11.6596H48.2647V8.34201H55.7701C56.0953 8.34201 56.4205 8.29213 56.7207 8.14248C57.0459 8.01777 57.3215 7.84318 57.5462 7.59377C57.7714 7.36894 57.9465 7.09459 58.0719 6.79529C58.1967 6.49599 58.2717 6.17175 58.2717 5.82257C58.2717 5.49833 58.1967 5.17409 58.0719 4.87479C57.9465 4.57549 57.7714 4.30113 57.5462 4.07666C57.3215 3.82724 57.0459 3.65231 56.7207 3.52795C56.4205 3.40324 56.0953 3.35336 55.7701 3.35336H48.2685L48.2765 0.0108414H55.7701C56.5456 0.0108414 57.2961 0.160491 58.0215 0.459789C58.747 0.784029 59.3727 1.18309 59.8981 1.73181C60.4234 2.25558 60.8487 2.85418 61.1488 3.57783C61.449 4.27619 61.5991 5.02444 61.5991 5.82257C61.5991 7.44411 61.0238 8.84084 59.848 9.98815ZM102.029 10.7869C101.21 11.1832 100.476 11.3498 99.9273 11.417L105.095 20H101.267L94.1987 8.34191H96.4335L98.9444 8.33152H99.2662C99.5914 8.33152 99.9166 8.28163 100.217 8.13198C100.542 8.00693 100.817 7.83234 101.042 7.58327C101.267 7.35845 101.443 7.08409 101.568 6.78479C101.693 6.4855 101.768 6.16125 101.768 5.81207C101.768 5.48783 101.693 5.16359 101.568 4.86395C101.443 4.565 101.267 4.29064 101.042 4.06582C100.817 3.81675 100.542 3.64181 100.217 3.51711C99.9166 3.3924 99.5914 3.34251 99.2662 3.34251H93.0331H92.727H91.505L89.7678 0H92.7346H93.0331H99.2662C100.042 0 100.792 0.149996 101.518 0.448948C102.243 0.773534 102.869 1.1726 103.394 1.72131C103.919 2.24509 104.345 2.84368 104.645 3.56699C104.945 4.26535 105.095 5.01394 105.095 5.81207C105.095 6.75777 104.899 7.62726 104.503 8.41534C103.978 9.45839 103.082 10.2776 102.029 10.7869Z" fill="white"/>
</svg>
